<svg xmlns="http://www.w3.org/2000/svg" width="404" height="402" viewBox="0 0 404 402" fill="none">
	<path d="M79.5537 120.094L69.818 109.287L71.7618 106.904L79.8004 115.827L83.742 110.995L85.4391 112.879L79.5537 120.094Z" fill="#EECA9F"/>
	<path d="M90.3863 106.399C89.8957 106.893 89.3868 107.236 88.8594 107.428C88.3292 107.616 87.8101 107.631 87.3021 107.471C86.7947 107.305 86.327 106.932 85.899 106.354C85.5386 105.866 85.3143 105.378 85.2262 104.889C85.1381 104.4 85.1545 103.919 85.2756 103.445C85.3967 102.971 85.5911 102.51 85.8588 102.061C86.1298 101.609 86.4401 101.17 86.7895 100.746C87.1973 100.242 87.5211 99.83 87.7609 99.5089C87.998 99.184 88.143 98.9118 88.1961 98.6923C88.2492 98.4729 88.2068 98.2699 88.0688 98.0834L88.0435 98.0491C87.776 97.6875 87.4689 97.5085 87.1222 97.5121C86.7789 97.5123 86.4254 97.6955 86.0617 98.0616C85.6779 98.4479 85.4443 98.8523 85.361 99.2748C85.2749 99.6935 85.3021 100.085 85.4427 100.448L83.3353 102.25C83.0412 101.616 82.8974 100.958 82.9038 100.274C82.9075 99.5861 83.0638 98.9041 83.3728 98.2279C83.6823 97.5445 84.1441 96.8937 84.7581 96.2757C85.1853 95.8458 85.6363 95.4914 86.1112 95.2126C86.5895 94.9305 87.0692 94.7565 87.5502 94.6906C88.0346 94.6214 88.5047 94.6862 88.9603 94.8851C89.4131 95.0801 89.8324 95.4384 90.2181 95.9599L94.5938 101.875L92.5714 103.911L91.6718 102.695L91.6118 102.755C91.691 103.153 91.7046 103.561 91.6526 103.979C91.5977 104.393 91.4688 104.805 91.2657 105.215C91.0599 105.622 90.7667 106.016 90.3863 106.399ZM89.7553 104.106C90.069 103.79 90.2938 103.441 90.4299 103.058C90.5632 102.672 90.6082 102.288 90.5648 101.906C90.5214 101.525 90.3857 101.18 90.1576 100.872L89.4691 99.9411C89.439 100.058 89.381 100.196 89.2952 100.355C89.2099 100.508 89.1082 100.673 88.99 100.852C88.869 101.027 88.7467 101.2 88.6229 101.371C88.4963 101.538 88.3816 101.69 88.2789 101.826C88.0596 102.12 87.8903 102.407 87.771 102.686C87.6517 102.966 87.598 103.236 87.61 103.496C87.6192 103.752 87.7082 103.995 87.8772 104.223C88.1221 104.554 88.4145 104.702 88.7543 104.665C89.0946 104.621 89.4282 104.435 89.7553 104.106Z" fill="#EECA9F"/>
	<path d="M96.3142 84.9891L97.551 86.8959L92.6253 91.243L91.3886 89.3362L96.3142 84.9891ZM91.0846 86.1565L93.353 84.1545L98.8874 92.6873C99.0394 92.9217 99.1899 93.0762 99.3388 93.1509C99.4852 93.2216 99.6319 93.2327 99.779 93.1841C99.9296 93.1323 100.081 93.0391 100.234 92.9044C100.34 92.8104 100.44 92.7065 100.534 92.5926C100.625 92.4748 100.695 92.3849 100.744 92.3228L102.326 93.8968C102.238 94.0368 102.108 94.2235 101.936 94.4568C101.766 94.6942 101.538 94.9488 101.251 95.2208C100.719 95.7271 100.187 96.0686 99.6545 96.2454C99.1251 96.419 98.6193 96.4094 98.137 96.2166C97.6548 96.0239 97.2209 95.626 96.8354 95.023L91.0846 86.1565Z" fill="#EECA9F"/>
	<path d="M108.588 74.7175L110.634 86.5832L107.875 88.5853L99.6549 81.1992L102.242 79.3222L107.748 84.879L107.84 84.8122L105.995 76.5986L108.588 74.7175Z" fill="#EECA9F"/>
	<path d="M117.007 81.7513L112.246 71.9358L114.772 70.2694L119.532 80.0849L117.007 81.7513ZM112.901 69.8334C112.526 70.0811 112.139 70.1595 111.74 70.0684C111.343 69.9705 111.052 69.732 110.868 69.3528C110.687 68.9779 110.663 68.5689 110.798 68.1258C110.934 67.6758 111.19 67.3269 111.565 67.0792C111.941 66.8314 112.327 66.7565 112.724 66.8544C113.123 66.9455 113.413 67.1785 113.595 67.5534C113.779 67.9325 113.803 68.3471 113.666 68.7971C113.532 69.2402 113.277 69.5856 112.901 69.8334Z" fill="#EECA9F"/>
	<path d="M117.409 68.3859L120 66.8242L124.637 77.2921C124.978 78.0627 125.112 78.7716 125.039 79.4189C124.967 80.0662 124.713 80.6603 124.28 81.2012C123.85 81.7398 123.269 82.2302 122.535 82.6726C122.446 82.7263 122.359 82.7755 122.276 82.82C122.191 82.8714 122.101 82.923 122.006 82.9748L121.048 80.8124C121.119 80.7752 121.181 80.7407 121.233 80.709C121.284 80.684 121.338 80.6543 121.394 80.6201C121.812 80.3684 122.062 80.0972 122.144 79.8065C122.232 79.5177 122.192 79.185 122.025 78.8083L117.409 68.3859ZM118.129 66.323C117.747 66.5527 117.359 66.6143 116.962 66.5078C116.564 66.3969 116.279 66.1488 116.108 65.7635C115.94 65.3826 115.933 64.9726 116.088 64.5337C116.241 64.0904 116.508 63.7539 116.889 63.5242C117.278 63.2896 117.67 63.2289 118.065 63.3422C118.461 63.4488 118.744 63.6925 118.913 64.0735C119.083 64.4588 119.092 64.8731 118.939 65.3163C118.788 65.7528 118.518 66.0884 118.129 66.323Z" fill="#EECA9F"/>
	<path d="M131.17 72.5639C130.542 72.8633 129.942 73.0162 129.371 73.0225C128.798 73.0244 128.289 72.8679 127.845 72.553C127.403 72.2316 127.063 71.7313 126.825 71.0521C126.625 70.4801 126.557 69.9518 126.622 69.4673C126.686 68.9828 126.85 68.5397 127.114 68.1379C127.377 67.736 127.708 67.3699 128.106 67.0395C128.508 66.707 128.944 66.4001 129.414 66.1187C129.965 65.7833 130.406 65.5052 130.738 65.2846C131.068 65.0595 131.293 64.8534 131.412 64.6663C131.531 64.4792 131.552 64.2762 131.475 64.0572L131.461 64.017C131.313 63.5925 131.069 63.3251 130.731 63.215C130.398 63.1028 129.998 63.1577 129.532 63.3797C129.041 63.6139 128.689 63.9142 128.479 64.2806C128.266 64.6426 128.172 65.0157 128.197 65.4002L125.596 66.3894C125.505 65.7027 125.568 65.0418 125.784 64.4068C125.999 63.7672 126.361 63.183 126.869 62.6542C127.38 62.1188 128.028 61.6637 128.815 61.2889C129.362 61.0282 129.909 60.8458 130.456 60.7415C131.007 60.6352 131.527 60.6302 132.014 60.7264C132.506 60.8205 132.943 61.0348 133.324 61.3693C133.704 61.6992 134.002 62.1703 134.216 62.7825L136.648 69.7269L134.058 70.9611L133.558 69.5334L133.481 69.5701C133.436 69.9672 133.323 70.3517 133.144 70.7238C132.964 71.0914 132.712 71.433 132.389 71.7488C132.064 72.06 131.658 72.3317 131.17 72.5639ZM131.262 70.2205C131.664 70.0291 131.99 69.7773 132.24 69.4654C132.488 69.1489 132.65 68.8059 132.725 68.4364C132.8 68.0669 132.774 67.7012 132.647 67.3392L132.265 66.2466C132.199 66.3455 132.101 66.4551 131.968 66.5755C131.839 66.6895 131.689 66.8103 131.519 66.9381C131.348 67.0615 131.176 67.1826 131.003 67.3014C130.829 67.4158 130.671 67.5198 130.529 67.6135C130.225 67.8154 129.973 68.027 129.771 68.2483C129.569 68.4696 129.434 68.7034 129.366 68.9498C129.296 69.1917 129.308 69.4467 129.402 69.7148C129.538 70.1036 129.777 70.3366 130.118 70.4138C130.462 70.4846 130.843 70.4201 131.262 70.2205Z" fill="#EECA9F"/>
	<path d="M147.597 56.3267L145.047 57.4591C144.94 57.2473 144.788 57.0774 144.592 56.9494C144.394 56.8167 144.16 56.7403 143.891 56.7201C143.624 56.6936 143.327 56.7416 142.999 56.8641C142.56 57.0279 142.215 57.2619 141.966 57.5662C141.716 57.866 141.634 58.1734 141.72 58.4885C141.789 58.7396 141.945 58.9155 142.188 59.0163C142.431 59.117 142.804 59.1313 143.307 59.0593L145.262 58.7528C146.314 58.5922 147.147 58.6538 147.763 58.9376C148.379 59.2213 148.79 59.7422 148.998 60.5002C149.187 61.1897 149.156 61.8684 148.904 62.5362C148.656 63.2024 148.231 63.809 147.628 64.356C147.028 64.8969 146.284 65.3328 145.397 65.6637C144.044 66.1684 142.886 66.2805 141.924 66.0001C140.966 65.7135 140.28 65.0935 139.867 64.1402L142.614 62.9496C142.814 63.3428 143.107 63.5909 143.492 63.6938C143.876 63.7922 144.321 63.7471 144.827 63.5585C145.324 63.3731 145.696 63.126 145.944 62.8172C146.195 62.5021 146.28 62.1862 146.198 61.8694C146.121 61.6062 145.952 61.4299 145.693 61.3404C145.433 61.2463 145.068 61.2363 144.599 61.3104L142.73 61.6076C141.675 61.7745 140.834 61.6955 140.208 61.3706C139.585 61.0441 139.166 60.4882 138.951 59.7028C138.765 59.0269 138.783 58.3786 139.004 57.7576C139.229 57.135 139.63 56.5704 140.205 56.064C140.784 55.5559 141.511 55.1389 142.385 54.8129C143.676 54.3314 144.769 54.2333 145.664 54.5186C146.563 54.8023 147.208 55.405 147.597 56.3267Z" fill="#EECA9F"/>
	<path d="M161.771 60.563C161.092 60.7159 160.467 60.733 159.896 60.6143C159.325 60.491 158.845 60.2283 158.458 59.8261C158.074 59.4183 157.823 58.8594 157.706 58.1493C157.607 57.5514 157.632 57.0248 157.782 56.5695C157.932 56.1143 158.174 55.7207 158.507 55.3889C158.84 55.0571 159.234 54.7746 159.689 54.5414C160.148 54.3071 160.637 54.105 161.155 53.9351C161.763 53.7304 162.252 53.5573 162.622 53.416C162.991 53.27 163.251 53.1194 163.402 52.9641C163.554 52.8089 163.611 52.6168 163.573 52.3879L163.566 52.3459C163.492 51.9021 163.297 51.59 162.98 51.4094C162.667 51.2279 162.259 51.1938 161.755 51.3071C161.224 51.4267 160.821 51.6409 160.546 51.9499C160.271 52.2542 160.112 52.5952 160.069 52.9731L157.302 53.3634C157.332 52.6783 157.511 52.0517 157.839 51.4837C158.166 50.9111 158.629 50.424 159.228 50.0226C159.832 49.6154 160.558 49.3162 161.408 49.1248C162 48.9917 162.577 48.9344 163.141 48.9529C163.709 48.9703 164.228 49.0789 164.697 49.2786C165.17 49.4772 165.568 49.7802 165.889 50.1875C166.21 50.5902 166.423 51.1115 166.529 51.7515L167.731 59.0107L164.931 59.6408L164.684 58.1483L164.601 58.167C164.486 58.5419 164.307 58.8899 164.063 59.2113C163.818 59.5281 163.507 59.8041 163.129 60.0393C162.75 60.2699 162.298 60.4445 161.771 60.563ZM162.275 58.3127C162.709 58.215 163.079 58.0422 163.383 57.7945C163.686 57.5422 163.907 57.2452 164.047 56.9036C164.187 56.562 164.226 56.202 164.163 55.8236L163.974 54.6815C163.892 54.763 163.774 54.8477 163.621 54.9355C163.471 55.0175 163.301 55.1019 163.109 55.1887C162.917 55.2708 162.724 55.3505 162.531 55.4279C162.337 55.5007 162.161 55.5669 162.003 55.6267C161.665 55.756 161.376 55.9059 161.136 56.0762C160.896 56.2466 160.72 56.4436 160.609 56.6674C160.496 56.8865 160.463 57.1361 160.51 57.4164C160.577 57.8228 160.774 58.1007 161.101 58.2501C161.431 58.3937 161.823 58.4146 162.275 58.3127Z" fill="#EECA9F"/>
	<path d="M174.824 50.7338L175.415 57.0129L172.414 57.3965L171.392 46.5353L174.253 46.1697L174.433 48.086L174.56 48.0698C174.74 47.4075 175.094 46.8565 175.623 46.4167C176.152 45.9723 176.818 45.6987 177.621 45.5961C178.372 45.5 179.043 45.5813 179.633 45.8398C180.223 46.0984 180.702 46.5142 181.069 47.0875C181.436 47.6559 181.66 48.3621 181.739 49.2059L182.389 56.1214L179.388 56.505L178.788 50.1269C178.731 49.4616 178.513 48.9647 178.135 48.6361C177.757 48.3028 177.267 48.1746 176.666 48.2514C176.262 48.3031 175.913 48.4359 175.619 48.6499C175.331 48.8634 175.115 49.1485 174.973 49.5055C174.835 49.857 174.785 50.2665 174.824 50.7338Z" fill="#EECA9F"/>
	<path d="M190.713 44.2087L190.82 46.4789L184.264 46.8981L184.157 44.6279L190.713 44.2087ZM185.522 41.922L188.541 41.7289L189.02 51.8881C189.033 52.1671 189.086 52.382 189.178 52.5326C189.27 52.6785 189.394 52.7774 189.548 52.8292C189.707 52.8807 189.888 52.9 190.091 52.887C190.232 52.8779 190.374 52.857 190.514 52.8243C190.655 52.7869 190.762 52.7586 190.837 52.7396L191.418 54.9582C191.269 55.0151 191.059 55.0831 190.788 55.1621C190.517 55.2459 190.186 55.3074 189.794 55.3467C189.068 55.4216 188.425 55.3654 187.867 55.1782C187.313 54.9906 186.874 54.6724 186.549 54.2235C186.225 53.7746 186.048 53.1929 186.019 52.4785L185.522 41.922Z" fill="#EECA9F"/>
	<path d="M195.331 54.7626L195.167 43.8547L198.192 43.7934L198.356 54.7013L195.331 54.7626ZM200.09 40.1179L200.115 41.7584L193.199 41.8985L193.174 40.258L200.09 40.1179Z" fill="#EECA9F"/>
	<path d="M205.228 51.2138L205.434 47.5906L205.874 47.6235L209.586 43.7507L213.049 44.0106L208.066 49.1339L207.351 49.0802L205.228 51.2138ZM202.322 54.1431L203.121 39.6196L206.138 39.8461L205.339 54.3695L202.322 54.1431ZM209.121 54.6534L206.181 49.6689L208.309 47.6853L212.655 54.9186L209.121 54.6534Z" fill="#EECA9F"/>
	<path d="M219.648 55.5148C218.962 55.3973 218.366 55.1728 217.859 54.8412C217.353 54.505 216.974 54.0729 216.721 53.5449C216.473 53.0129 216.394 52.3899 216.484 51.6759C216.56 51.0745 216.733 50.5883 217.003 50.2172C217.274 49.846 217.614 49.5683 218.024 49.3841C218.433 49.1998 218.886 49.0855 219.383 49.0409C219.884 48.9972 220.404 48.9951 220.942 49.0345C221.576 49.0759 222.088 49.1011 222.477 49.1103C222.868 49.1148 223.157 49.0731 223.344 48.9852C223.532 48.8973 223.64 48.7383 223.669 48.5081L223.674 48.4658C223.73 48.0195 223.634 47.6502 223.384 47.358C223.14 47.0665 222.763 46.8773 222.254 46.7901C221.718 46.6982 221.275 46.7449 220.928 46.9301C220.581 47.1107 220.334 47.3707 220.186 47.7101L217.457 47.0122C217.679 46.3785 218.026 45.8572 218.497 45.4484C218.969 45.0348 219.545 44.7544 220.226 44.6072C220.913 44.456 221.685 44.4539 222.544 44.601C223.141 44.7033 223.704 44.8717 224.232 45.1061C224.765 45.3414 225.226 45.6434 225.613 46.0121C226.005 46.3816 226.296 46.82 226.485 47.3275C226.674 47.8302 226.728 48.4034 226.647 49.047L225.729 56.3475L222.901 55.8631L223.09 54.3621L223.006 54.3478C222.791 54.6564 222.522 54.9152 222.2 55.124C221.879 55.3281 221.506 55.4682 221.082 55.5443C220.658 55.6157 220.18 55.6059 219.648 55.5148ZM220.763 53.5893C221.201 53.6644 221.6 53.6438 221.958 53.5276C222.316 53.4066 222.61 53.2122 222.839 52.9443C223.068 52.6764 223.207 52.3522 223.255 51.9716L223.399 50.823C223.298 50.8681 223.163 50.9025 222.993 50.9262C222.828 50.946 222.643 50.9599 222.437 50.9678C222.231 50.971 222.026 50.9719 221.822 50.9704C221.617 50.9642 221.432 50.9589 221.266 50.9544C220.909 50.9461 220.593 50.976 220.318 51.0439C220.042 51.1119 219.82 51.2298 219.651 51.3977C219.483 51.5608 219.381 51.7833 219.345 52.0652C219.294 52.4739 219.402 52.8115 219.669 53.0779C219.941 53.3405 220.305 53.5109 220.763 53.5893ZM226.501 41.737L226.296 43.3649L219.478 42.1971L219.683 40.5693L226.501 41.737Z" fill="#EECA9F"/>
	<path d="M236.553 62.2607L240.031 47.6697L242.869 48.5905L242.444 50.373L242.572 50.4146C242.766 50.17 243.018 49.939 243.327 49.7217C243.641 49.5013 244.016 49.3549 244.45 49.2826C244.89 49.2071 245.401 49.2636 245.982 49.4522C246.739 49.6977 247.388 50.127 247.931 50.7398C248.475 51.3481 248.842 52.1197 249.031 53.0545C249.222 53.9848 249.172 55.0579 248.883 56.2738C248.6 57.4575 248.175 58.3962 247.607 59.0901C247.045 59.7809 246.394 60.2321 245.654 60.4436C244.92 60.652 244.159 60.6283 243.371 60.3725C242.813 60.1913 242.36 59.9427 242.013 59.6267C241.671 59.3121 241.41 58.9719 241.23 58.6059C241.052 58.2354 240.933 57.8815 240.872 57.5443L240.784 57.5158L239.43 63.1948L236.553 62.2607ZM241.583 53.8898C241.433 54.5208 241.387 55.099 241.446 55.6243C241.506 56.1496 241.666 56.5962 241.928 56.9639C242.19 57.3271 242.554 57.584 243.018 57.7345C243.486 57.8865 243.914 57.8839 244.3 57.7266C244.688 57.5647 245.022 57.2759 245.3 56.8602C245.584 56.4414 245.8 55.9234 245.947 55.3062C246.093 54.6936 246.139 54.1277 246.083 53.6084C246.027 53.0892 245.868 52.6457 245.607 52.2779C245.345 51.9101 244.978 51.6495 244.505 51.496C244.037 51.344 243.61 51.342 243.225 51.4901C242.845 51.6396 242.514 51.9192 242.232 52.3289C241.95 52.7385 241.734 53.2588 241.583 53.8898Z" fill="#EECA9F"/>
	<path d="M256.213 63.6901C255.201 63.2507 254.397 62.6474 253.801 61.8802C253.211 61.1104 252.844 60.2372 252.701 59.2608C252.559 58.2798 252.658 57.2571 252.997 56.1925C253.34 55.1189 253.839 54.2674 254.494 53.638C255.152 53.0041 255.918 52.6232 256.795 52.4953C257.677 52.3649 258.624 52.5193 259.636 52.9588C260.648 53.3982 261.449 54.0028 262.039 54.7726C262.635 55.5398 263.004 56.4139 263.146 57.3948C263.289 58.3713 263.19 59.3963 262.847 60.4699C262.508 61.5344 262.009 62.3837 261.352 63.0176C260.696 63.6471 259.927 64.027 259.045 64.1575C258.169 64.2853 257.224 64.1295 256.213 63.6901ZM256.938 61.4629C257.398 61.6628 257.826 61.6944 258.22 61.5576C258.617 61.4164 258.968 61.1429 259.276 60.7371C259.588 60.3333 259.84 59.8291 260.033 59.2247C260.226 58.6202 260.317 58.0463 260.308 57.5028C260.302 56.9613 260.19 56.486 259.969 56.0769C259.748 55.6679 259.408 55.3634 258.948 55.1635C258.483 54.9617 258.048 54.9295 257.643 55.067C257.243 55.2064 256.887 55.478 256.575 55.8818C256.267 56.2876 256.017 56.7927 255.824 57.3971C255.632 58.0016 255.538 58.5746 255.543 59.1161C255.553 59.6596 255.67 60.1367 255.895 60.5477C256.125 60.956 256.473 61.2611 256.938 61.4629Z" fill="#EECA9F"/>
	<path d="M264.304 66.8742L268.152 56.6663L270.762 58.0054L270.091 59.7864L270.192 59.8383C270.608 59.2955 271.085 58.9694 271.624 58.86C272.165 58.7461 272.707 58.8286 273.25 59.1074C273.385 59.1766 273.527 59.26 273.676 59.3577C273.825 59.4554 273.953 59.55 274.059 59.6415L273.112 62.1536C273.001 62.0489 272.839 61.9238 272.628 61.7782C272.416 61.6326 272.218 61.5123 272.032 61.4172C271.636 61.214 271.248 61.1233 270.868 61.145C270.494 61.1644 270.156 61.2872 269.855 61.5132C269.557 61.7414 269.33 62.0638 269.173 62.4802L266.996 68.2554L264.304 66.8742Z" fill="#EECA9F"/>
	<path d="M277.917 74.3392C276.977 73.7349 276.269 73.0011 275.795 72.1377C275.326 71.2726 275.091 70.3404 275.091 69.341C275.094 68.3442 275.331 67.3471 275.803 66.3495C276.28 65.3391 276.88 64.5694 277.602 64.0403C278.33 63.5095 279.132 63.2464 280.008 63.251C280.885 63.2513 281.788 63.5497 282.716 64.1463C283.516 64.6609 284.143 65.2678 284.597 65.967C285.051 66.6661 285.32 67.4109 285.403 68.2014C285.487 68.9918 285.366 69.7796 285.042 70.5647L282.641 69.0208C282.806 68.4849 282.813 67.9737 282.664 67.4871C282.521 66.9988 282.216 66.6048 281.75 66.3053C281.356 66.0518 280.957 65.9459 280.553 65.9876C280.155 66.0276 279.771 66.2135 279.402 66.5452C279.032 66.8769 278.701 67.3532 278.408 67.974C278.11 68.6033 277.937 69.1897 277.888 69.7331C277.843 70.279 277.914 70.7623 278.099 71.183C278.285 71.6036 278.575 71.9407 278.969 72.1942C279.26 72.3811 279.551 72.4846 279.842 72.5046C280.138 72.5273 280.419 72.4652 280.686 72.3185C280.959 72.17 281.201 71.9378 281.412 71.6217L283.814 73.1656C283.418 73.8935 282.914 74.4342 282.3 74.7877C281.693 75.1395 281.014 75.2839 280.265 75.2209C279.516 75.158 278.733 74.8641 277.917 74.3392Z" fill="#EECA9F"/>
	<path d="M289.336 81.8758C288.452 81.1845 287.805 80.3925 287.393 79.4996C286.988 78.6055 286.823 77.661 286.897 76.666C286.974 75.6669 287.299 74.6686 287.872 73.671C288.431 72.698 289.093 71.9782 289.859 71.5117C290.624 71.0452 291.436 70.8502 292.295 70.9268C293.158 71.0062 294.01 71.3755 294.853 72.0347C295.42 72.4781 295.89 72.9914 296.263 73.5746C296.642 74.1567 296.9 74.7897 297.037 75.4738C297.177 76.1608 297.177 76.8862 297.035 77.6501C296.896 78.4099 296.595 79.1921 296.133 79.9968L295.719 80.7173L288.462 75.0429L289.396 73.4171L294.409 77.3372C294.626 76.9595 294.744 76.5666 294.762 76.1584C294.781 75.7503 294.705 75.3605 294.534 74.9892C294.37 74.6167 294.114 74.2949 293.767 74.0236C293.405 73.7407 293.032 73.5822 292.646 73.5482C292.266 73.513 291.909 73.5881 291.576 73.7735C291.244 73.9548 290.97 74.2308 290.751 74.6015L289.863 76.1471C289.594 76.6152 289.44 77.0808 289.401 77.544C289.366 78.0102 289.44 78.4494 289.625 78.8617C289.81 79.2739 290.102 79.6361 290.501 79.9482C290.766 80.1552 291.032 80.3038 291.299 80.3937C291.566 80.4837 291.825 80.5079 292.076 80.4661C292.327 80.4244 292.562 80.3166 292.781 80.1427L294.893 82.0265C294.447 82.522 293.925 82.8517 293.328 83.0156C292.737 83.1783 292.1 83.1679 291.416 82.9843C290.738 82.7995 290.045 82.43 289.336 81.8758Z" fill="#EECA9F"/>
	<path d="M306.878 77.1781L299.138 89.4928L296.838 87.526L304.579 75.2114L306.878 77.1781Z" fill="#EECA9F"/>
	<path d="M305.165 95.0897C304.683 94.5875 304.327 94.0441 304.097 93.4595C303.87 92.8711 303.792 92.2727 303.863 91.6641C303.94 91.0552 304.197 90.465 304.635 89.8936C305.003 89.4124 305.39 89.0886 305.794 88.9221C306.199 88.7556 306.61 88.7111 307.028 88.7885C307.446 88.866 307.863 89.0299 308.279 89.2803C308.697 89.5341 309.109 89.835 309.515 90.1831C309.994 90.5883 310.386 90.9084 310.689 91.1434C310.996 91.3746 311.245 91.5065 311.439 91.5389C311.632 91.5713 311.799 91.4954 311.94 91.3112L311.966 91.2774C312.239 90.9203 312.353 90.5415 312.306 90.141C312.262 89.744 312.061 89.3593 311.704 88.9869C311.327 88.594 310.954 88.3773 310.584 88.3367C310.217 88.2924 309.888 88.3755 309.597 88.586L307.798 86.3866C308.299 85.9628 308.841 85.7095 309.423 85.6266C310.008 85.5401 310.608 85.6308 311.222 85.8989C311.842 86.1667 312.453 86.6148 313.057 87.2434C313.476 87.6807 313.835 88.1556 314.132 88.6681C314.432 89.1839 314.641 89.7158 314.758 90.2635C314.878 90.8146 314.883 91.3668 314.772 91.92C314.663 92.4695 314.412 93.0017 314.018 93.5167L309.544 99.3587L307.558 97.2885L308.477 96.0874L308.418 96.0259C308.09 96.1701 307.745 96.2398 307.383 96.2347C307.024 96.2259 306.658 96.1312 306.283 95.9505C305.912 95.7661 305.539 95.4791 305.165 95.0897ZM307.035 94.057C307.343 94.3781 307.668 94.5921 308.011 94.699C308.356 94.8021 308.688 94.8034 309.007 94.7029C309.326 94.6023 309.602 94.3998 309.835 94.0953L310.538 93.1762C310.436 93.1567 310.311 93.1079 310.164 93.0297C310.024 92.9511 309.871 92.8553 309.704 92.7422C309.54 92.6254 309.377 92.5067 309.216 92.3861C309.058 92.2618 308.914 92.1492 308.785 92.0484C308.507 91.8336 308.242 91.6756 307.99 91.5745C307.737 91.4734 307.501 91.447 307.281 91.4952C307.064 91.5397 306.87 91.6747 306.697 91.9003C306.446 92.2273 306.358 92.5849 306.432 92.9731C306.513 93.3609 306.713 93.7222 307.035 94.057ZM317.655 87.0466L316.657 88.3492L311.867 83.3581L312.865 82.0555L317.655 87.0466Z" fill="#EECA9F"/>
	<path d="M319.585 100.867L315.299 105.493L313.418 103.123L320.832 95.1205L322.624 97.3796L321.316 98.7915L321.396 98.8917C321.977 98.6154 322.57 98.5644 323.174 98.7387C323.781 98.9094 324.336 99.312 324.839 99.9463C325.31 100.54 325.608 101.179 325.733 101.863C325.858 102.548 325.808 103.238 325.584 103.935C325.363 104.628 324.965 105.285 324.389 105.907L319.668 111.002L317.788 108.632L322.142 103.932C322.598 103.446 322.846 102.931 322.886 102.385C322.928 101.837 322.761 101.325 322.385 100.85C322.132 100.531 321.849 100.314 321.535 100.197C321.225 100.085 320.901 100.083 320.564 100.192C320.233 100.302 319.906 100.527 319.585 100.867Z" fill="#EECA9F"/>
	<path d="M325.329 117.081C324.952 116.496 324.706 115.895 324.593 115.278C324.483 114.658 324.521 114.057 324.709 113.475C324.903 112.894 325.27 112.366 325.811 111.892C326.266 111.492 326.709 111.25 327.139 111.165C327.57 111.08 327.983 111.116 328.379 111.273C328.776 111.43 329.154 111.671 329.515 111.996C329.878 112.326 330.225 112.7 330.557 113.12C330.951 113.609 331.274 113.998 331.527 114.287C331.784 114.573 332.004 114.75 332.188 114.819C332.372 114.888 332.551 114.846 332.726 114.693L332.758 114.665C333.096 114.369 333.28 114.02 333.311 113.618C333.345 113.221 333.222 112.806 332.942 112.372C332.647 111.915 332.321 111.63 331.965 111.519C331.613 111.404 331.273 111.422 330.946 111.572L329.6 109.07C330.176 108.753 330.758 108.609 331.347 108.641C331.939 108.669 332.511 108.874 333.064 109.256C333.622 109.638 334.138 110.195 334.61 110.927C334.938 111.436 335.199 111.971 335.393 112.53C335.589 113.093 335.692 113.654 335.701 114.213C335.713 114.776 335.611 115.317 335.395 115.837C335.182 116.354 334.832 116.827 334.344 117.255L328.814 122.108L327.259 119.697L328.396 118.699L328.349 118.627C327.998 118.705 327.645 118.706 327.29 118.631C326.939 118.553 326.597 118.39 326.263 118.14C325.933 117.888 325.622 117.535 325.329 117.081ZM327.368 116.432C327.609 116.806 327.888 117.079 328.205 117.249C328.525 117.417 328.851 117.483 329.184 117.446C329.517 117.409 329.828 117.264 330.116 117.011L330.986 116.248C330.889 116.209 330.775 116.137 330.646 116.032C330.524 115.928 330.391 115.804 330.249 115.661C330.11 115.515 329.973 115.368 329.837 115.218C329.706 115.066 329.586 114.928 329.478 114.804C329.247 114.54 329.016 114.334 328.787 114.186C328.558 114.039 328.331 113.967 328.105 113.972C327.883 113.973 327.666 114.068 327.452 114.255C327.143 114.527 326.987 114.86 326.985 115.254C326.989 115.649 327.117 116.042 327.368 116.432Z" fill="#EECA9F"/>
	<path d="M88.8401 298.266C89.1917 297.798 89.3419 297.277 89.2906 296.704C89.2394 296.13 88.9863 295.552 88.5315 294.97C88.2225 294.575 87.9136 294.293 87.605 294.126C87.2995 293.955 87.0068 293.887 86.727 293.924C86.4501 293.964 86.2062 294.099 85.9953 294.329C85.8138 294.514 85.694 294.725 85.6359 294.961C85.5807 295.202 85.5708 295.458 85.6061 295.731C85.6447 296 85.7148 296.283 85.8165 296.58C85.9214 296.874 86.0476 297.172 86.195 297.474L86.7888 298.734C87.0836 299.339 87.3144 299.938 87.4812 300.53C87.648 301.123 87.7343 301.7 87.7402 302.261C87.746 302.822 87.6564 303.359 87.4713 303.873C87.2891 304.391 86.995 304.875 86.589 305.326C85.9854 305.979 85.3247 306.37 84.6069 306.498C83.8951 306.626 83.1584 306.49 82.3966 306.092C81.641 305.694 80.8988 305.028 80.1699 304.096C79.4469 303.17 78.9385 302.232 78.6449 301.28C78.3542 300.331 78.2967 299.405 78.4725 298.5C78.6543 297.595 79.091 296.747 79.7825 295.956L81.6148 298.301C81.3061 298.687 81.1174 299.098 81.0485 299.533C80.9858 299.968 81.0268 300.411 81.1716 300.862C81.3224 301.313 81.5611 301.747 81.8876 302.165C82.2083 302.575 82.5379 302.876 82.8762 303.066C83.2175 303.26 83.5448 303.341 83.8581 303.31C84.1714 303.279 84.4463 303.134 84.6827 302.875C84.9032 302.634 85.0287 302.355 85.0593 302.038C85.0929 301.724 85.0486 301.364 84.9267 300.958C84.8076 300.555 84.6279 300.098 84.3877 299.586L83.6808 298.044C83.127 296.858 82.8455 295.751 82.8363 294.723C82.8271 293.695 83.1866 292.786 83.9147 291.997C84.506 291.343 85.1695 290.96 85.9051 290.847C86.6437 290.738 87.3941 290.876 88.1564 291.26C88.9187 291.644 89.6264 292.254 90.2794 293.089C90.9441 293.94 91.3997 294.819 91.6461 295.726C91.8955 296.636 91.9366 297.512 91.7695 298.352C91.6024 299.192 91.2309 299.937 90.6549 300.588L88.8401 298.266Z" fill="#EECA9F"/>
	<path d="M99.5143 308.001L98.1631 309.828L93.5981 305.104L94.9492 303.277L99.5143 308.001ZM97.5394 302.248L99.6418 304.423L93.5954 312.601C93.4293 312.826 93.3294 313.032 93.2958 313.219C93.2649 313.402 93.2838 313.573 93.3525 313.731C93.4245 313.893 93.5312 314.047 93.6727 314.193C93.7714 314.296 93.8771 314.388 93.9899 314.471C94.1055 314.551 94.1939 314.612 94.2549 314.655L93.2471 316.807C93.1137 316.737 92.9333 316.627 92.7058 316.479C92.4756 316.335 92.2197 316.127 91.9382 315.856C91.4146 315.354 91.0282 314.817 90.7788 314.243C90.5327 313.672 90.4438 313.09 90.5119 312.495C90.58 311.9 90.8282 311.317 91.2566 310.745L97.5394 302.248Z" fill="#EECA9F"/>
	<path d="M99.691 322.637C99.1756 322.169 98.782 321.651 98.5102 321.082C98.2409 320.51 98.1189 319.916 98.1442 319.302C98.1755 318.687 98.3869 318.077 98.7785 317.473C99.1082 316.965 99.4675 316.612 99.8564 316.416C100.245 316.22 100.65 316.146 101.071 316.193C101.491 316.24 101.917 316.374 102.347 316.594C102.782 316.818 103.213 317.089 103.641 317.409C104.147 317.779 104.559 318.071 104.877 318.285C105.198 318.494 105.456 318.608 105.65 318.626C105.844 318.645 106.004 318.556 106.13 318.362L106.154 318.326C106.398 317.949 106.482 317.561 106.406 317.164C106.333 316.769 106.106 316.399 105.723 316.052C105.32 315.686 104.934 315.496 104.564 315.482C104.197 315.465 103.877 315.572 103.604 315.804L101.655 313.732C102.121 313.272 102.64 312.979 103.211 312.853C103.785 312.724 104.386 312.771 105.015 312.995C105.65 313.218 106.29 313.623 106.936 314.208C107.384 314.615 107.775 315.065 108.108 315.556C108.445 316.051 108.691 316.568 108.848 317.108C109.008 317.651 109.054 318.204 108.985 318.766C108.918 319.324 108.708 319.875 108.355 320.419L104.352 326.593L102.228 324.664L103.051 323.395L102.987 323.338C102.672 323.506 102.335 323.601 101.976 323.622C101.62 323.639 101.249 323.571 100.864 323.417C100.482 323.26 100.091 323 99.691 322.637ZM101.469 321.467C101.798 321.766 102.137 321.957 102.485 322.039C102.835 322.117 103.164 322.094 103.473 321.97C103.782 321.847 104.04 321.624 104.249 321.302L104.879 320.331C104.775 320.319 104.648 320.279 104.497 320.211C104.352 320.143 104.192 320.058 104.018 319.957C103.847 319.852 103.677 319.745 103.508 319.636C103.342 319.523 103.191 319.421 103.055 319.329C102.764 319.134 102.489 318.995 102.231 318.912C101.973 318.83 101.737 318.82 101.523 318.884C101.311 318.945 101.128 319.094 100.973 319.332C100.749 319.678 100.688 320.042 100.791 320.426C100.899 320.808 101.125 321.155 101.469 321.467Z" fill="#EECA9F"/>
	<path d="M119.335 324.834L118.265 326.839L113.001 322.908L114.071 320.903L119.335 324.834ZM116.496 319.49L118.92 321.3L114.133 330.273C114.002 330.52 113.933 330.737 113.928 330.926C113.925 331.111 113.97 331.276 114.062 331.421C114.158 331.568 114.288 331.703 114.451 331.825C114.565 331.91 114.684 331.985 114.809 332.049C114.936 332.109 115.034 332.155 115.101 332.188L114.423 334.459C114.279 334.41 114.083 334.331 113.834 334.221C113.582 334.115 113.296 333.951 112.974 333.728C112.377 333.317 111.91 332.849 111.575 332.324C111.243 331.802 111.067 331.243 111.044 330.648C111.022 330.053 111.181 329.442 111.522 328.814L116.496 319.49Z" fill="#EECA9F"/>
	<path d="M126.226 336.451L128.873 330.774L131.407 332.427L126.797 342.315L124.365 340.727L125.202 338.931L125.107 338.869C124.631 339.314 124.071 339.556 123.427 339.595C122.787 339.636 122.124 339.433 121.438 338.985C120.827 338.587 120.36 338.086 120.036 337.483C119.712 336.88 119.548 336.216 119.545 335.491C119.545 334.77 119.723 334.021 120.08 333.246L123.015 326.951L125.548 328.604L122.841 334.41C122.573 334.997 122.503 335.552 122.63 336.078C122.758 336.603 123.062 337.022 123.541 337.335C123.847 337.535 124.167 337.646 124.503 337.669C124.841 337.688 125.161 337.6 125.463 337.406C125.77 337.214 126.024 336.896 126.226 336.451Z" fill="#EECA9F"/>
	<path d="M136.86 347.145C135.865 346.627 135.087 345.968 134.528 345.167C133.974 344.365 133.65 343.471 133.556 342.484C133.464 341.493 133.618 340.458 134.019 339.38C134.411 338.328 134.947 337.506 135.629 336.913C136.311 336.32 137.085 335.984 137.952 335.905C138.822 335.829 139.732 336.038 140.681 336.533C141.32 336.865 141.873 337.283 142.343 337.787C142.818 338.289 143.181 338.862 143.432 339.507C143.688 340.154 143.81 340.864 143.798 341.637C143.788 342.405 143.621 343.224 143.297 344.093L143.007 344.872L134.838 340.617L135.491 338.859L141.135 341.799C141.287 341.391 141.338 340.986 141.287 340.583C141.236 340.18 141.095 339.813 140.863 339.48C140.637 339.145 140.328 338.876 139.938 338.672C139.53 338.46 139.132 338.372 138.743 338.407C138.359 338.441 138.018 338.578 137.717 338.819C137.419 339.055 137.192 339.374 137.038 339.776L136.416 341.447C136.228 341.953 136.153 342.436 136.193 342.896C136.236 343.358 136.385 343.775 136.638 344.145C136.891 344.515 137.242 344.817 137.692 345.051C137.99 345.207 138.279 345.305 138.56 345.345C138.841 345.385 139.102 345.363 139.345 345.277C139.587 345.191 139.803 345.044 139.991 344.835L142.408 346.3C142.048 346.865 141.585 347.281 141.019 347.548C140.459 347.812 139.824 347.916 139.114 347.858C138.409 347.799 137.658 347.561 136.86 347.145Z" fill="#EECA9F"/>
	<path d="M155.128 342.536L154.497 344.719L148.407 342.255L149.038 340.072L155.128 342.536ZM151.146 338.12L153.951 339.255L151.127 349.026C151.049 349.294 151.028 349.519 151.064 349.701C151.101 349.879 151.181 350.026 151.304 350.141C151.432 350.259 151.59 350.356 151.779 350.433C151.911 350.486 152.045 350.528 152.184 350.558C152.323 350.584 152.43 350.605 152.504 350.619L152.32 352.961C152.167 352.949 151.954 352.922 151.682 352.878C151.409 352.839 151.089 352.752 150.721 352.618C150.037 352.372 149.471 352.039 149.024 351.619C148.581 351.201 148.284 350.71 148.133 350.146C147.982 349.583 148.009 348.958 148.211 348.273L151.146 338.12Z" fill="#EECA9F"/>
	<path d="M161.416 356.069C160.35 355.718 159.485 355.194 158.82 354.498C158.161 353.799 157.72 352.974 157.499 352.022C157.278 351.065 157.3 350.027 157.563 348.907C157.821 347.814 158.253 346.924 158.861 346.235C159.469 345.547 160.203 345.096 161.063 344.882C161.927 344.671 162.867 344.732 163.883 345.067C164.566 345.293 165.176 345.615 165.712 346.035C166.254 346.452 166.692 346.957 167.027 347.549C167.367 348.143 167.581 348.819 167.669 349.578C167.758 350.333 167.696 351.162 167.483 352.065L167.293 352.874L158.544 349.99L158.974 348.165L165.018 350.157C165.117 349.733 165.116 349.328 165.013 348.941C164.91 348.555 164.721 348.217 164.445 347.927C164.175 347.634 163.831 347.419 163.412 347.281C162.976 347.137 162.565 347.114 162.179 347.21C161.798 347.303 161.473 347.491 161.203 347.775C160.934 348.053 160.747 348.402 160.644 348.82L160.236 350.555C160.112 351.08 160.099 351.565 160.198 352.01C160.301 352.456 160.504 352.841 160.806 353.164C161.108 353.487 161.499 353.728 161.98 353.886C162.3 353.992 162.603 354.042 162.89 354.037C163.177 354.033 163.437 353.969 163.669 353.847C163.901 353.725 164.098 353.547 164.26 353.312L166.875 354.368C166.586 354.978 166.175 355.458 165.642 355.809C165.114 356.156 164.49 356.358 163.77 356.413C163.055 356.466 162.27 356.351 161.416 356.069Z" fill="#EECA9F"/>
	<path d="M181.59 352.464L178.862 352.017C178.854 351.773 178.789 351.54 178.667 351.319C178.546 351.092 178.37 350.895 178.138 350.726C177.913 350.553 177.629 350.428 177.288 350.35C176.831 350.246 176.429 350.256 176.083 350.381C175.738 350.501 175.539 350.722 175.487 351.045C175.445 351.302 175.511 351.542 175.685 351.766C175.86 351.99 176.185 352.212 176.661 352.432L178.523 353.263C179.522 353.714 180.236 354.235 180.667 354.828C181.097 355.42 181.249 356.104 181.122 356.88C181.008 357.586 180.701 358.158 180.204 358.597C179.711 359.037 179.084 359.326 178.325 359.463C177.571 359.596 176.732 359.558 175.809 359.348C174.4 359.027 173.327 358.474 172.588 357.691C171.854 356.903 171.5 355.979 171.524 354.918L174.451 355.425C174.468 355.88 174.626 356.26 174.926 356.566C175.226 356.867 175.639 357.077 176.166 357.197C176.683 357.315 177.115 357.309 177.461 357.18C177.813 357.047 178.018 356.819 178.075 356.498C178.114 356.226 178.038 355.978 177.844 355.755C177.651 355.527 177.332 355.313 176.885 355.115L175.104 354.323C174.099 353.876 173.385 353.336 172.962 352.701C172.543 352.068 172.399 351.349 172.53 350.545C172.643 349.854 172.924 349.3 173.375 348.884C173.831 348.469 174.417 348.203 175.135 348.086C175.858 347.969 176.674 348.015 177.584 348.222C178.927 348.528 179.938 349.056 180.615 349.807C181.297 350.558 181.622 351.444 181.59 352.464Z" fill="#EECA9F"/>
	<path d="M199.442 357.165L199.856 350.915L202.868 351.194L202.147 362.079L199.255 361.811L199.386 359.834L199.273 359.823C198.985 360.439 198.544 360.913 197.948 361.248C197.356 361.583 196.653 361.712 195.837 361.637C195.111 361.57 194.483 361.345 193.953 360.963C193.424 360.581 193.023 360.071 192.753 359.433C192.486 358.795 192.379 358.051 192.431 357.2L192.89 350.269L195.903 350.548L195.479 356.941C195.441 357.583 195.58 358.107 195.895 358.512C196.209 358.917 196.652 359.146 197.222 359.198C197.585 359.232 197.93 359.181 198.257 359.045C198.584 358.904 198.855 358.677 199.071 358.364C199.291 358.052 199.414 357.652 199.442 357.165Z" fill="#EECA9F"/>
	<path d="M210.548 355.367L210.566 361.673L207.541 361.685L207.509 350.776L210.393 350.765L210.398 352.69L210.526 352.689C210.766 352.054 211.169 351.55 211.736 351.178C212.303 350.802 212.992 350.612 213.801 350.609C214.559 350.606 215.22 350.769 215.784 351.098C216.349 351.427 216.788 351.899 217.102 352.513C217.417 353.123 217.575 353.851 217.577 354.699L217.597 361.645L214.572 361.657L214.553 355.251C214.556 354.583 214.384 354.063 214.038 353.691C213.691 353.313 213.214 353.126 212.608 353.128C212.201 353.13 211.842 353.219 211.53 353.395C211.222 353.572 210.982 353.828 210.807 354.165C210.638 354.497 210.551 354.898 210.548 355.367Z" fill="#EECA9F"/>
	<path d="M230.398 359.834L228.895 345.366L238.425 343.98L238.687 346.502L232.2 347.446L232.558 350.893L238.413 350.041L238.675 352.563L232.82 353.415L233.442 359.391L230.398 359.834Z" fill="#EECA9F"/>
	<path d="M245.274 356.868L243.397 346.122L246.335 345.403L248.213 356.15L245.274 356.868ZM244.631 344.376C244.194 344.483 243.793 344.427 243.429 344.21C243.069 343.987 242.853 343.668 242.78 343.253C242.708 342.842 242.801 342.452 243.058 342.083C243.318 341.708 243.667 341.467 244.104 341.36C244.541 341.254 244.94 341.312 245.3 341.535C245.664 341.752 245.882 342.066 245.954 342.477C246.026 342.892 245.932 343.287 245.672 343.662C245.415 344.031 245.068 344.269 244.631 344.376Z" fill="#EECA9F"/>
	<path d="M258.573 357.621C257.632 357.894 256.798 357.997 256.07 357.929C255.348 357.864 254.742 357.664 254.253 357.329C253.764 356.995 253.402 356.564 253.167 356.037L255.777 354.887C255.904 355.077 256.075 355.238 256.29 355.372C256.506 355.506 256.771 355.586 257.085 355.613C257.405 355.643 257.776 355.596 258.199 355.473C258.831 355.289 259.319 354.98 259.662 354.546C260.011 354.115 260.11 353.533 259.958 352.8L259.551 350.847L259.429 350.882C259.363 351.216 259.23 351.552 259.031 351.89C258.831 352.229 258.549 352.539 258.183 352.823C257.818 353.106 257.358 353.328 256.803 353.49C256.017 353.719 255.262 353.742 254.539 353.559C253.82 353.37 253.19 352.946 252.648 352.288C252.11 351.623 251.718 350.7 251.472 349.518C251.22 348.308 251.203 347.241 251.421 346.317C251.639 345.394 252.026 344.637 252.584 344.047C253.145 343.456 253.81 343.049 254.579 342.825C255.165 342.654 255.677 342.613 256.115 342.702C256.552 342.787 256.923 342.944 257.226 343.175C257.533 343.401 257.783 343.638 257.974 343.887L258.083 343.855L257.71 342.061L260.595 341.222L262.837 352.007C263.026 352.915 262.966 353.739 262.657 354.478C262.348 355.217 261.838 355.852 261.129 356.383C260.425 356.917 259.573 357.329 258.573 357.621ZM257.261 350.997C257.729 350.861 258.1 350.627 258.374 350.297C258.651 349.961 258.83 349.545 258.91 349.049C258.994 348.548 258.971 347.985 258.841 347.359C258.711 346.733 258.512 346.216 258.243 345.807C257.974 345.394 257.649 345.107 257.269 344.948C256.889 344.788 256.465 344.776 255.996 344.912C255.519 345.051 255.144 345.3 254.872 345.66C254.598 346.015 254.426 346.449 254.354 346.961C254.282 347.474 254.309 348.033 254.435 348.641C254.564 349.257 254.759 349.766 255.02 350.167C255.286 350.561 255.605 350.835 255.979 350.986C256.356 351.132 256.784 351.136 257.261 350.997Z" fill="#EECA9F"/>
	<path d="M272.462 342.663L270.722 336.646L273.527 335.511L276.556 345.991L273.863 347.08L273.313 345.177L273.208 345.219C273.157 345.926 272.92 346.573 272.497 347.161C272.078 347.747 271.489 348.194 270.729 348.501C270.054 348.774 269.413 348.856 268.807 348.745C268.202 348.634 267.669 348.344 267.21 347.875C266.755 347.403 266.407 346.759 266.166 345.942L264.237 339.269L267.042 338.135L268.821 344.289C269.004 344.906 269.306 345.33 269.725 345.561C270.145 345.793 270.621 345.801 271.152 345.586C271.49 345.45 271.783 345.242 272.031 344.964C272.278 344.681 272.445 344.344 272.533 343.953C272.625 343.56 272.602 343.13 272.462 342.663ZM271.089 332.595L271.544 334.172L265.131 336.766L264.676 335.19L271.089 332.595Z" fill="#EECA9F"/>
	<path d="M281.501 343.224L277.696 333L280.297 331.645L280.961 333.429L281.062 333.377C281.002 332.65 281.12 332.017 281.415 331.476C281.708 330.931 282.126 330.518 282.668 330.235C282.802 330.165 282.95 330.099 283.112 330.036C283.274 329.973 283.42 329.926 283.549 329.896L284.485 332.412C284.344 332.437 284.157 332.493 283.923 332.578C283.689 332.662 283.479 332.753 283.295 332.849C282.9 333.055 282.581 333.33 282.338 333.673C282.097 334.011 281.946 334.386 281.885 334.8C281.827 335.211 281.876 335.625 282.031 336.042L284.184 341.827L281.501 343.224Z" fill="#EECA9F"/>
	<path d="M291.319 337.736L286.956 327.737L289.539 326.16L293.901 336.159L291.319 337.736ZM287.691 325.656C287.307 325.89 286.918 325.955 286.524 325.849C286.132 325.737 285.852 325.487 285.684 325.101C285.517 324.719 285.509 324.309 285.661 323.87C285.815 323.424 286.083 323.084 286.467 322.85C286.851 322.616 287.239 322.555 287.631 322.667C288.025 322.773 288.305 323.016 288.472 323.398C288.64 323.785 288.648 324.2 288.494 324.646C288.343 325.085 288.075 325.421 287.691 325.656Z" fill="#EECA9F"/>
	<path d="M297.811 326.089L300.547 331.771L298.038 333.463L293.305 323.634L295.696 322.022L296.531 323.756L296.637 323.685C296.562 322.978 296.68 322.3 296.991 321.649C297.3 320.995 297.79 320.441 298.461 319.989C299.089 319.565 299.709 319.345 300.32 319.329C300.931 319.313 301.5 319.494 302.026 319.874C302.55 320.25 302.996 320.82 303.364 321.583L306.377 327.841L303.869 329.532L301.089 323.761C300.803 323.156 300.436 322.782 299.987 322.639C299.536 322.491 299.059 322.586 298.557 322.925C298.219 323.152 297.959 323.432 297.776 323.765C297.596 324.095 297.507 324.46 297.508 324.861C297.51 325.255 297.611 325.664 297.811 326.089ZM302.351 336.116L301.559 332.463L303.879 330.899L304.112 334.929L302.351 336.116Z" fill="#EECA9F"/>
	<path d="M312.342 321.779C311.803 322.22 311.262 322.509 310.718 322.645C310.173 322.777 309.657 322.737 309.17 322.525C308.684 322.306 308.26 321.886 307.897 321.264C307.591 320.741 307.42 320.231 307.384 319.735C307.349 319.238 307.416 318.76 307.586 318.301C307.757 317.841 307.998 317.402 308.311 316.983C308.628 316.561 308.982 316.156 309.373 315.769C309.831 315.31 310.196 314.933 310.468 314.639C310.737 314.34 310.91 314.083 310.986 313.87C311.061 313.657 311.041 313.451 310.924 313.25L310.902 313.213C310.675 312.825 310.39 312.615 310.046 312.582C309.705 312.546 309.335 312.692 308.936 313.019C308.514 313.363 308.24 313.742 308.113 314.154C307.983 314.562 307.968 314.955 308.069 315.332L305.789 316.907C305.564 316.245 305.491 315.573 305.57 314.893C305.647 314.208 305.874 313.545 306.252 312.903C306.631 312.254 307.158 311.654 307.832 311.103C308.301 310.719 308.786 310.413 309.287 310.185C309.791 309.954 310.285 309.83 310.769 309.815C311.256 309.797 311.716 309.911 312.146 310.156C312.575 310.398 312.953 310.799 313.28 311.359L316.993 317.712L314.772 319.528L314.008 318.222L313.942 318.276C313.979 318.682 313.949 319.089 313.853 319.5C313.755 319.907 313.584 320.304 313.339 320.691C313.092 321.075 312.759 321.438 312.342 321.779ZM311.959 319.428C312.303 319.146 312.563 318.822 312.738 318.455C312.912 318.083 312.997 317.705 312.994 317.321C312.991 316.936 312.893 316.579 312.7 316.247L312.116 315.248C312.073 315.361 312.001 315.493 311.899 315.642C311.799 315.785 311.68 315.94 311.544 316.105C311.406 316.267 311.266 316.426 311.125 316.584C310.982 316.737 310.852 316.877 310.736 317.002C310.487 317.272 310.289 317.54 310.141 317.806C309.993 318.072 309.911 318.335 309.896 318.596C309.878 318.852 309.94 319.103 310.084 319.348C310.292 319.704 310.566 319.881 310.907 319.881C311.249 319.873 311.599 319.722 311.959 319.428Z" fill="#EECA9F"/>
	<path d="M322.728 301.208L320.866 303.303C320.695 303.144 320.5 303.042 320.279 302.999C320.056 302.951 319.821 302.971 319.574 303.059C319.327 303.14 319.08 303.304 318.832 303.552C318.5 303.883 318.278 304.243 318.166 304.632C318.051 305.018 318.088 305.344 318.277 305.61C318.429 305.822 318.63 305.927 318.882 305.927C319.134 305.926 319.471 305.791 319.893 305.522L321.521 304.451C322.398 303.879 323.161 303.606 323.81 303.631C324.459 303.657 325.012 303.989 325.468 304.629C325.883 305.211 326.099 305.871 326.114 306.608C326.132 307.342 325.971 308.09 325.631 308.852C325.291 309.606 324.786 310.318 324.116 310.987C323.094 312.007 322.105 312.575 321.149 312.691C320.194 312.799 319.362 312.481 318.654 311.737L320.669 309.508C320.989 309.803 321.338 309.923 321.717 309.867C322.094 309.808 322.473 309.588 322.855 309.207C323.231 308.832 323.473 308.448 323.583 308.055C323.693 307.655 323.655 307.32 323.469 307.05C323.306 306.83 323.094 306.729 322.831 306.747C322.566 306.761 322.238 306.897 321.848 307.154L320.292 308.182C319.414 308.761 318.638 309.02 317.965 308.96C317.294 308.897 316.723 308.534 316.25 307.871C315.843 307.3 315.627 306.675 315.601 305.995C315.578 305.311 315.732 304.614 316.062 303.902C316.395 303.186 316.892 302.499 317.552 301.84C318.527 300.867 319.464 300.338 320.361 300.254C321.263 300.166 322.051 300.484 322.728 301.208Z" fill="#EECA9F"/>
	<!--<path d="M317.5 199.5C317.5 259.637 266.524 308.5 203.5 308.5C140.476 308.5 89.5 259.637 89.5 199.5C89.5 139.363 140.476 90.5 203.5 90.5C266.524 90.5 317.5 139.363 317.5 199.5Z" stroke="#EECA9F" stroke-width="3"/>
	--><path d="M400.5 201C400.5 310.06 311.645 398.5 202 398.5C92.3551 398.5 3.5 310.06 3.5 201C3.5 91.9401 92.3551 3.5 202 3.5C311.645 3.5 400.5 91.9401 400.5 201Z" stroke="#EECA9F" stroke-width="7"/>
</svg>